<?xml version="1.0" standalone="no"?> <!DOCTYPE svg PUBLIC "-//W3C//DTD SVG 1.0//EN" "http://www.w3.org/TR/2001/REC-SVG-20010904/DTD/svg10.dtd" > <svg xmlns="http://www.w3.org/2000/svg" width="100%" height="100%">
<defs >
<font id="benscnbd" horiz-adv-x="423" ><font-face
    font-family="BentonSansCond-Bold"
    units-per-em="1000"
    panose-1="2 0 8 6 5 0 0 2 0 4"
    ascent="787"
    descent="-213"
    alphabetic="0" />
<missing-glyph horiz-adv-x="500" />
<glyph unicode=" " glyph-name="space" horiz-adv-x="224" />
<glyph unicode="!" glyph-name="exclam" horiz-adv-x="313" d="M69 740H249L218 220H99L69 740ZM78 142H239V0H78V142Z" />
<glyph unicode="&quot;" glyph-name="quotedbl" horiz-adv-x="408" d="M230 678V740H357V678L343 474H244L230 678ZM50 678V740H178V678L164 474H65L50 678Z" />
<glyph unicode="#" glyph-name="numbersign" horiz-adv-x="653" d="M110 194H19V307H131L154 433H55V546H174L209 740H341L307 546H398L433 740H565L531 546H633V433H510L488 307H596V194H467L434 0H301L334 194H244L210 0H77L110 194ZM356 305L379 435H286L263 305H356Z" />
<glyph unicode="$" glyph-name="dollar" horiz-adv-x="578" d="M237 819H341V739Q380 732 409 716T461 677T499 624T526 563L403 514Q383 565 354 593T279 621Q237 621 217 602T196 550Q196 522 211 503T250 469T305 443T368 418T431 389T486 348T525 290T540
208Q540 168 528 133T491 71T429 25T341 1V-93H237V2Q191 9 157 27T98 72T57 131T29 200L157 237Q177 182 208 149T295 115Q339 115 367 134T395 195Q395 233 370 256T306 295T224 328T141 369T78 435T52 539Q52 620 101 673T237 739V819Z" />
<glyph unicode="%" glyph-name="percent" horiz-adv-x="922" d="M197 267Q116 267 71 327T25 509Q25 629 70 689T197 749Q279 749 323 689T368 509Q368 388 324 328T197 267ZM587 740H709L334 0H212L587 740ZM726 -9Q645 -9 600 51T554 233Q554 354 599 414T726
474Q808 474 852 414T897 233Q897 112 853 52T726 -9ZM197 372Q227 372 237 404T247 509Q247 581 237 612T197 643Q167 643 157 612T146 509Q146 436 157 404T197 372ZM726 96Q756 96 766 128T776 233Q776 305 766 336T726 367Q696 367 686 336T675 233Q675 160
686 128T726 96Z" />
<glyph unicode="&amp;" glyph-name="ampersand" horiz-adv-x="647" d="M257 -14Q136 -14 74 37T12 177Q12 220 24 253T56 312T102 359T158 398Q139 439 128 482T116 571Q116 612 129 645T166 703T225 740T304 754Q351 754 383 741T436 707T466 658T476 600Q476
559 463 527T429 468T381 421T323 380Q332 366 341 352T361 323Q379 297 397 274T436 229Q464 296 470 381H597Q589 323 574 264T533 154Q559 137 585 128T641 117V-10Q583 -8 536 5T445 46Q410 18 364 2T257 -14ZM278 468Q310 492 331 521T352 592Q352 615 342
632T306 649Q282 649 267 632T251 580Q251 553 258 525T278 468ZM263 94Q313 94 350 122Q327 147 304 176T256 239Q245 253 234 269T212 302Q187 280 173 254T158 194Q158 144 186 119T263 94Z" />
<glyph unicode="&apos;" glyph-name="quotesingle" horiz-adv-x="230" d="M50 678V740H179V678L164 474H65L50 678Z" />
<glyph unicode="(" glyph-name="parenleft" horiz-adv-x="360" d="M250 -206Q150 -109 92 11T34 280Q34 427 92 547T250 764L336 699Q270 611 229 506T188 280Q188 220 199 162T230 49T277 -53T339 -142L250 -206V-206Z" />
<glyph unicode=")" glyph-name="parenright" horiz-adv-x="360" d="M21 -142Q88 -54 130 52T172 279Q172 400 131 509T23 699L109 764Q209 667 267 547T325 279Q325 132 267 13T110 -206L21 -142Z" />
<glyph unicode="*" glyph-name="asterisk" horiz-adv-x="482" d="M94 378L185 505L29 490V584L188 568Q187 570 172 590T139 634Q119 662 93 697L177 746L241 602L305 746L389 697L296 569L453 584V490L297 505L389 378L306 329L241 472L177 329L94 378Z" />
<glyph unicode="+" glyph-name="plus" horiz-adv-x="565" d="M220 280H54V402H220V598H345V402H511V280H345V84H220V280Z" />
<glyph unicode="," glyph-name="comma" horiz-adv-x="245" d="M106 0H46V152H198V17L133 -112H64L106 0Z" />
<glyph unicode="-" glyph-name="hyphen" horiz-adv-x="316" d="M37 365H279V257H37V365Z" />
<glyph unicode="." glyph-name="period" horiz-adv-x="245" d="M46 152H198V0H46V152Z" />
<glyph unicode="/" glyph-name="slash" horiz-adv-x="541" d="M377 740H529L163 0H12L377 740Z" />
<glyph unicode="0" glyph-name="zero" horiz-adv-x="594" d="M297 -14Q169 -14 101 82T32 370Q32 562 100 658T297 754Q425 754 493 658T561 370Q561 178 493 82T297 -14ZM297 109Q355 109 382 169T410 370Q410 440 403 489T382 568T346 613T297 627Q268 627 247
613T211 569T190 489T183 370Q183 230 212 170T297 109Z" />
<glyph unicode="1" glyph-name="one" horiz-adv-x="405" d="M26 122H141V600Q118 586 87 576T28 566V692Q104 695 145 740H287V122H388V0H26V122Z" />
<glyph unicode="2" glyph-name="two" horiz-adv-x="530" d="M22 16Q22 102 46 162T106 265T184 340T262 402T322 467T346 549Q346 585 328 605T272 625Q236 625 204 598T149 517L29 571Q47 612 70 645T125 703T195 740T282 754Q334 754 373 739T440 698T481 636T495
556Q495 497 473 453T418 373T346 308T274 251T218 191T194 122H493V0H22V16Z" />
<glyph unicode="3" glyph-name="three" horiz-adv-x="540" d="M259 -13Q207 -13 166 -1T94 33T41 86T2 154L121 207Q142 156 175 131T252 106Q304 106 332 136T360 210Q360 275 321 303T203 332H169V445H212Q251 445 276 452T316 473T337 506T343 551Q343 585
324 608T260 631Q221 631 188 610T132 553L31 621Q72 681 132 717T273 754Q323 754 363 741T432 703T475 644T490 568Q490 502 456 457T365 395Q432 375 469 330T507 207Q507 155 489 114T437 45T359 2T259 -13Z" />
<glyph unicode="4" glyph-name="four" horiz-adv-x="579" d="M319 155H17V260L301 740H464V270H565V155H464V0H319V155ZM321 270V545H320L161 270H321Z" />
<glyph unicode="5" glyph-name="five" horiz-adv-x="532" d="M263 -14Q214 -14 175 -2T104 31T50 83T10 149L128 204Q149 158 181 132T257 105Q365 105 365 244Q365 313 338 346T261 380Q229 380 202 363T154 314L47 337L72 740H468L461 611H192L179 436Q196 460
229 478T313 496Q411 496 461 432T512 249Q512 124 446 55T263 -14Z" />
<glyph unicode="6" glyph-name="six" horiz-adv-x="555" d="M291 -14Q170 -14 101 78T32 357Q32 458 52 533T108 657T194 730T304 754Q347 754 380 743T439 714T482 673T514 624L395 563Q380 589 358 611T301 634Q244 634 213 581T177 415Q247 477 333 477Q427
477 481 415T535 238Q535 183 519 137T471 57T394 5T291 -14ZM299 101Q347 101 370 137T393 231Q393 258 389 280T373 320T344 346T299 356Q263 356 234 343T177 304Q183 196 213 149T299 101Z" />
<glyph unicode="7" glyph-name="seven" horiz-adv-x="470" d="M305 611H11V740H460V620L220 0H66L305 611Z" />
<glyph unicode="8" glyph-name="eight" horiz-adv-x="552" d="M276 -14Q213 -14 165 0T84 41T36 104T19 185Q19 220 30 249T61 304T107 349T162 386Q137 402 116 419T80 457T56 505T47 569Q47 606 61 639T105 698T177 739T276 754Q335 754 378 739T449 698T491
639T505 569Q505 511 474 464T391 387Q421 371 447 353T492 312T522 258T533 185Q533 140 516 104T466 41T386 1T276 -14ZM284 446Q322 470 341 495T361 556Q361 572 357 586T343 612T317 631T278 638Q233 638 213 615T193 559Q193 518 217 493T284 446ZM276 97Q327
97 354 124T382 193Q382 236 353 265T267 323Q222 297 196 266T169 193Q169 153 196 125T276 97Z" />
<glyph unicode="9" glyph-name="nine" horiz-adv-x="555" d="M251 -14Q208 -14 174 -3T115 26T71 68T39 117L158 179Q166 166 175 152T196 128T222 110T254 103Q311 103 341 157T377 325Q307 263 222 263Q128 263 74 325T20 502Q20 558 37 604T86 683T163 735T264
754Q390 754 456 662T523 383Q523 282 503 207T447 83T361 10T251 -14ZM256 384Q324 384 377 436Q371 543 341 589T256 635Q208 635 185 601T162 509Q162 482 166 460T181 420T210 394T256 384Z" />
<glyph unicode=":" glyph-name="colon" horiz-adv-x="254" d="M51 533H203V381H51V533ZM51 152H203V0H51V152Z" />
<glyph unicode=";" glyph-name="semicolon" horiz-adv-x="254" d="M51 533H203V381H51V533ZM109 0H51V152H203V19L136 -112H67L109 0Z" />
<glyph unicode="&lt;" glyph-name="less" horiz-adv-x="577" d="M62 277V371L512 590V463L209 324L512 185V58L62 277Z" />
<glyph unicode="=" glyph-name="equal" horiz-adv-x="565" d="M59 491H505V380H59V491ZM59 273H505V162H59V273Z" />
<glyph unicode="&gt;" glyph-name="greater" horiz-adv-x="577" d="M65 185L368 324L65 463V590L516 371V277L65 58V185Z" />
<glyph unicode="?" glyph-name="question" horiz-adv-x="501" d="M174 219Q172 236 172 250T172 279Q172 311 180 336T201 383T232 422T267 457Q294 483 311 508T329 567Q329 598 311 615T261 632Q242 632 226 624T197 602T172 570T153 534L32 579Q61 658 120
706T272 754Q322 754 359 741T420 704T457 649T470 581Q470 546 462 520T441 472T411 435T377 401Q353 377 338 359T314 321T302 278T299 219H174V219ZM156 142H317V0H156V142Z" />
<glyph unicode="@" glyph-name="at" horiz-adv-x="754" d="M372 -14Q293 -14 230 11T124 85T57 205T33 369Q33 457 58 528T129 649T238 727T378 754Q455 754 518 728T626 652T696 534T721 380Q721 272 677 214T547 155Q493 155 465 177T423 234Q401 204 371 183T295
161Q238 161 208 206T179 331Q180 391 192 439T225 520T276 571T342 589Q379 589 401 575T438 537L444 580H555L517 288Q512 250 523 234T564 218Q602 218 627 255T653 378Q653 453 633 511T577 609T490 670T377 691Q315 691 265 670T178 608T123 508T103 370Q103
286 122 225T177 125T263 66T375 46Q423 46 469 57T550 91L580 42Q561 29 537 19T485 1T429 -10T372 -14ZM343 254Q360 254 375 262T405 285L427 465Q416 479 403 486T371 493Q334 493 315 453T294 344Q292 299 303 277T343 254Z" />
<glyph unicode="A" glyph-name="A" horiz-adv-x="602" d="M153 0H11L228 743H374L591 0H438L398 156H194L153 0ZM348 349Q341 378 334 403T321 453T309 501T298 551H296Q291 525 286 501T274 454T260 405T245 350L225 274H367L348 349Z" />
<glyph unicode="B" glyph-name="B" horiz-adv-x="603" d="M61 740H314Q361 740 403 732T477 703T528 646T547 555Q547 515 537 486T510 436T471 404T426 385V383Q456 377 481 365T524 332T553 280T564 202Q564 146 544 108T491 45T414 11T323 0H61V740ZM304 432Q355
432 380 454T405 524Q405 573 381 594T305 616H209V432H304ZM313 119Q368 119 393 145T419 222Q419 276 390 300T306 325H209V119H313Z" />
<glyph unicode="C" glyph-name="C" horiz-adv-x="605" d="M316 -13Q252 -13 200 9T111 79T53 198T32 371Q32 470 53 542T112 661T204 731T320 754Q380 754 424 736T498 685T546 604T572 499L429 474Q416 550 392 587T315 624Q249 624 217 560T185 371Q185 244
217 178T317 112Q369 112 396 149T437 272L580 249Q570 193 551 145T501 62T424 7T316 -13Z" />
<glyph unicode="D" glyph-name="D" horiz-adv-x="626" d="M61 740H255Q330 740 392 723T499 663T569 550T594 372Q594 264 569 193T498 78T391 18T255 0H61V740ZM269 127Q317 127 350 140T403 182T433 258T442 372Q442 437 433 482T404 557T350 599T268 612H213V127H269Z" />
<glyph unicode="E" glyph-name="E" horiz-adv-x="526" d="M61 740H485V612H213V445H409V324H213V125H499V0H61V740Z" />
<glyph unicode="F" glyph-name="F" horiz-adv-x="494" d="M61 740H477V612H213V429H402V308H213V0H61V740Z" />
<glyph unicode="G" glyph-name="G" horiz-adv-x="636" d="M301 -12Q235 -12 185 14T101 89T50 210T32 372Q32 555 106 654T320 754Q426 754 486 694T570 499L432 472Q416 556 389 590T315 624Q289 624 266 613T224 573T196 496T185 374Q185 299 195 249T223 169T266
125T323 112Q374 112 405 147T444 254H337V368H581V0H469V95H468Q461 77 447 58T412 24T363 -2T301 -12Z" />
<glyph unicode="H" glyph-name="H" horiz-adv-x="647" d="M61 740H213V450H434V740H586V0H434V324H213V0H61V740Z" />
<glyph unicode="I" glyph-name="I" horiz-adv-x="285" d="M67 740H219V0H67V740Z" />
<glyph unicode="J" glyph-name="J" horiz-adv-x="457" d="M204 -11Q149 -11 99 4T9 45L70 156Q96 139 127 129T185 119Q218 119 235 137T253 201V740H405V186Q405 95 356 42T204 -11Z" />
<glyph unicode="K" glyph-name="K" horiz-adv-x="606" d="M61 740H212V418Q217 427 224 440T240 467T258 497T276 524L413 740H575L377 449L599 0H435L279 319L212 227V0H61V740Z" />
<glyph unicode="L" glyph-name="L" horiz-adv-x="512" d="M61 740H213V125H491V0H61V740Z" />
<glyph unicode="M" glyph-name="M" horiz-adv-x="767" d="M61 740H255L385 211H386L508 740H705V0H561V520H559Q557 501 553 477T543 427T532 379T521 338L433 0H320L234 338Q231 351 226 374T214 423T203 477T196 524H194V0H61V740Z" />
<glyph unicode="N" glyph-name="N" horiz-adv-x="652" d="M61 740H218L388 408Q397 390 404 376T418 348T432 318T448 281H450V740H588V0H447L255 359Q247 374 241 386T228 410T216 437T201 469H199V0H61V740Z" />
<glyph unicode="O" glyph-name="O" horiz-adv-x="652" d="M326 -14Q266 -14 213 8T119 78T56 198T32 370Q32 469 55 541T119 661T212 731T326 754Q386 754 439 732T532 662T595 542T619 370Q619 271 596 199T532 79T439 9T326 -14ZM326 112Q395 112 430 179T466
370Q466 494 431 559T326 624Q257 624 221 559T185 370Q185 246 221 179T326 112Z" />
<glyph unicode="P" glyph-name="P" horiz-adv-x="573" d="M61 740H285Q336 740 383 729T465 690T522 617T543 502Q543 429 521 382T461 307T378 269T283 258H211V0H61V740ZM287 378Q347 378 372 407T398 498Q398 558 373 585T286 613H211V378H287Z" />
<glyph unicode="Q" glyph-name="Q" horiz-adv-x="652" d="M462 -198Q401 -198 360 -183T294 -141T258 -78T247 0Q200 11 161 39T92 114T47 224T31 370Q31 469 54 541T118 661T211 731T325 754Q385 754 438 732T531 662T594 542T618 370Q618 283 601 218T553 106T481
33T391 -3Q396 -27 405 -41T429 -63T465 -73T518 -75H558V-198H462V-198ZM325 112Q394 112 429 179T465 370Q465 494 430 559T325 624Q256 624 220 559T184 370Q184 246 220 179T325 112Z" />
<glyph unicode="R" glyph-name="R" horiz-adv-x="593" d="M61 740H292Q351 740 397 727T476 686T525 614T543 508Q543 432 509 383T421 311L562 0H405L280 274H210V0H61V740ZM287 390Q343 390 370 416T398 505Q398 565 371 589T287 613H210V390H287Z" />
<glyph unicode="S" glyph-name="S" horiz-adv-x="588" d="M305 -13Q251 -13 208 0T131 36T72 91T27 163L150 225Q174 177 212 143T305 108Q353 108 378 131T403 192Q403 215 393 232T364 263T322 288T272 311Q236 326 198 344T128 389T76 454T56 548Q56 594 73
632T122 697T197 739T291 754Q339 754 377 742T446 707T500 655T540 589L422 525Q399 572 367 600T288 629Q248 629 227 608T205 555Q205 533 215 516T241 486T280 461T327 438Q364 422 404 404T477 358T531 293T552 198Q552 156 536 118T489 51T412 4T305 -13Z"
/>
<glyph unicode="T" glyph-name="T" horiz-adv-x="537" d="M192 612H16V740H521V612H344V0H192V612Z" />
<glyph unicode="U" glyph-name="U" horiz-adv-x="611" d="M307 -12Q240 -12 192 6T112 58T67 142T52 256V740H204V265Q204 187 228 152T309 116Q366 116 390 152T414 264V740H559V257Q559 193 545 143T501 59T422 6T307 -12Z" />
<glyph unicode="V" glyph-name="V" horiz-adv-x="587" d="M11 740H164L251 390Q258 364 264 340T275 293T285 246T296 193H298Q304 220 309 244T320 291T332 338T344 388L434 740H576L367 -3H220L11 740Z" />
<glyph unicode="W" glyph-name="W" horiz-adv-x="808" d="M15 740H161L218 443Q223 418 227 397T234 354T242 307T252 246H254Q259 280 263 305T270 353T278 396T287 442L342 740H478L534 437Q539 412 543 391T551 347T559 300T567 245H569Q573 275 577 299T584
345T592 389T601 435L659 740H794L629 -3H497L405 484H403L311 -3H180L15 740Z" />
<glyph unicode="X" glyph-name="X" horiz-adv-x="602" d="M219 391L39 740H204L309 515L410 740H557L380 396L583 0H421L292 271L167 0H17L219 391Z" />
<glyph unicode="Y" glyph-name="Y" horiz-adv-x="575" d="M211 290L3 740H158L290 428H292L424 740H572L363 291V0H211V290Z" />
<glyph unicode="Z" glyph-name="Z" horiz-adv-x="551" d="M22 110L341 612H44V740H520V627L206 125H520V0H22V110Z" />
<glyph unicode="[" glyph-name="bracketleft" horiz-adv-x="377" d="M56 740H356V633H206V-94H356V-200H56V740Z" />
<glyph unicode="\" glyph-name="backslash" horiz-adv-x="526" d="M4 740H156L521 0H369L4 740Z" />
<glyph unicode="]" glyph-name="bracketright" horiz-adv-x="377" d="M21 -94H170V633H21V740H321V-200H21V-94Z" />
<glyph unicode="^" glyph-name="asciicircum" horiz-adv-x="480" d="M191 753H289L399 587H314L239 657L166 587H81L191 753Z" />
<glyph unicode="_" glyph-name="underscore" horiz-adv-x="437" d="M-8 -46H445V-152H-8V-46Z" />
<glyph unicode="`" glyph-name="grave" horiz-adv-x="481" d="M88 753H234L314 587H212L88 753Z" />
<glyph unicode="a" glyph-name="a" horiz-adv-x="497" d="M151 -6Q124 -6 100 1T59 26T31 69T21 133Q21 177 41 211T98 270T189 314T308 345V367Q308 397 296 412T254 428Q213 428 175 410T107 370L40 458Q87 499 148 521T282 544Q371 544 411 501T451 367V130Q451
82 453 51T464 0H318Q313 15 311 32T308 72Q279 34 241 14T151 -6ZM214 107Q245 107 268 120T308 149V267Q228 250 196 223T164 160Q164 134 177 121T214 107Z" />
<glyph unicode="b" glyph-name="b" horiz-adv-x="534" d="M334 -8Q289 -8 256 10T198 61V0H50V739H198V462Q219 493 252 518T336 544Q413 544 461 477T509 267Q509 125 461 59T334 -8ZM281 107Q321 107 340 144T360 266Q360 345 341 382T280 419Q254 419 234 404T198
371V152Q218 132 237 120T281 107Z" />
<glyph unicode="c" glyph-name="c" horiz-adv-x="481" d="M253 -11Q209 -11 168 4T95 53T44 139T25 266Q25 342 45 395T98 481T173 529T258 544Q307 544 341 531T400 494T438 438T462 369L331 338Q320 386 304 407T256 429Q216 429 195 391T173 266Q173 185 191
142T255 99Q283 99 304 120T337 196L464 165Q455 128 439 96T397 40T336 3T253 -11Z" />
<glyph unicode="d" glyph-name="d" horiz-adv-x="534" d="M199 -8Q160 -8 128 7T74 56T39 140T26 264Q26 407 74 475T200 544Q246 544 280 524T337 472V740H484V130Q484 82 487 51T498 0H347Q345 6 343 15T340 33T338 52T337 68Q315 38 282 15T199 -8ZM255 107Q280
107 300 122T337 154V374Q319 394 299 407T254 420Q213 420 194 384T174 265Q174 185 193 146T255 107Z" />
<glyph unicode="e" glyph-name="e" horiz-adv-x="494" d="M259 -11Q211 -11 169 4T94 53T44 139T25 266Q25 342 45 395T99 481T173 529T255 544Q300 544 339 528T407 478T452 389T469 257V230H170Q174 161 199 130T266 99Q304 99 334 120T381 168L467 99Q432 48
383 19T259 -11ZM335 314Q331 374 311 402T255 431Q224 431 201 405T171 314H335Z" />
<glyph unicode="f" glyph-name="f" horiz-adv-x="347" d="M91 424H15V533H91V582Q91 615 97 644T122 694T173 729T260 742Q283 742 307 741T337 738V629Q332 630 320 631T300 632Q274 632 256 622T237 575V533H333V424H237V0H91V424Z" />
<glyph unicode="g" glyph-name="g" horiz-adv-x="526" d="M394 491Q417 513 450 527T511 545V423Q500 423 481 422T437 416Q442 401 445 385T449 351Q449 262 394 211T242 159Q206 159 174 167Q159 155 159 142Q159 128 169 124T208 116L277 111Q338 107 379 97T446
68T483 24T495 -38Q495 -77 475 -107T420 -157T335 -189T226 -200Q163 -200 120 -192T51 -169T14 -132T2 -82Q2 -44 24 -19T82 25Q40 50 40 94Q40 122 59 149T108 195Q70 221 51 261T31 351Q31 395 45 430T87 491T154 530T242 544Q291 544 329 531T394 491ZM243
250Q278 250 296 276T315 347Q315 392 297 417T243 443Q207 443 189 418T171 347Q171 302 189 276T243 250ZM162 1Q133 -24 133 -56Q133 -91 160 -106T250 -121Q301 -121 332 -106T364 -61Q364 -49 361 -40T345 -25T312 -14T254 -7L175 0Q166 0 162 1Z" />
<glyph unicode="h" glyph-name="h" horiz-adv-x="532" d="M50 740H198V459Q208 473 223 488T259 515T304 536T357 544Q414 544 450 513T486 404V0H339V357Q339 388 328 403T291 419Q265 419 241 404T198 371V0H50V740Z" />
<glyph unicode="i" glyph-name="i" horiz-adv-x="258" d="M55 729H203V601H55V729ZM55 533H203V0H55V533Z" />
<glyph unicode="j" glyph-name="j" horiz-adv-x="258" d="M55 729H203V601H55V729ZM44 -202Q37 -202 25 -202T1 -201T-20 -199T-32 -197V-92Q-27 -93 -16 -94T4 -95Q31 -95 43 -80T55 -34V533H203V-50Q203 -83 197 -111T173 -159T125 -190T44 -202Z" />
<glyph unicode="k" glyph-name="k" horiz-adv-x="499" d="M50 740H195V318Q203 334 217 356T245 402L329 533H478L338 335L489 0H339L245 216L195 146V0H50V740Z" />
<glyph unicode="l" glyph-name="l" horiz-adv-x="258" d="M55 740H203V0H55V740Z" />
<glyph unicode="m" glyph-name="m" horiz-adv-x="802" d="M50 533H198V459Q208 473 223 488T258 515T301 536T350 544Q404 544 433 523T472 459Q483 474 499 489T534 516T577 536T626 544Q693 544 724 507T756 399V0H609V357Q609 388 600 403T563 419Q540 419
518 404T477 371V0H329V357Q329 388 320 403T285 419Q261 419 240 405T198 371V0H50V533Z" />
<glyph unicode="n" glyph-name="n" horiz-adv-x="532" d="M50 533H198V459Q208 473 223 488T259 515T304 536T357 544Q414 544 450 513T486 404V0H339V357Q339 388 328 403T291 419Q265 419 241 404T198 371V0H50V533Z" />
<glyph unicode="o" glyph-name="o" horiz-adv-x="520" d="M260 -11Q215 -11 173 4T97 53T45 139T25 266Q25 341 44 394T96 480T171 528T260 544Q305 544 347 529T423 480T475 394T495 266Q495 192 476 140T423 54T348 5T260 -11ZM260 102Q306 102 326 142T347
266Q347 341 328 384T260 427Q214 427 194 387T173 266Q173 190 192 146T260 102Z" />
<glyph unicode="p" glyph-name="p" horiz-adv-x="534" d="M50 533H198V462Q218 492 252 518T336 544Q413 544 460 477T508 267Q508 125 460 59T334 -8Q289 -8 255 10T198 61V-200H50V533ZM281 107Q321 107 340 144T360 266Q360 345 341 382T280 419Q254 419 234
404T198 371V152Q218 132 237 120T281 107Z" />
<glyph unicode="q" glyph-name="q" horiz-adv-x="534" d="M336 66Q315 38 282 15T199 -8Q160 -8 128 7T74 56T39 140T26 264Q26 407 74 475T200 544Q246 544 279 525T336 473V533H484V-200H336V66ZM255 107Q280 107 299 122T336 154V374Q319 394 299 407T254 420Q213
420 194 384T174 265Q174 185 193 146T255 107Z" />
<glyph unicode="r" glyph-name="r" horiz-adv-x="369" d="M50 533H198V447H200Q209 464 222 481T253 513T294 535T348 544H353Q355 544 357 543L355 408Q352 409 341 410T324 411Q280 411 249 393T198 350V0H50V533Z" />
<glyph unicode="s" glyph-name="s" horiz-adv-x="464" d="M233 -12Q155 -12 101 12T9 80L86 163Q118 131 158 111T235 91Q267 91 286 103T305 140Q305 165 285 178T235 202T171 222T106 251T56 301T36 382Q36 423 52 453T95 503T157 534T233 544Q287 544 339 522T428
459L351 377Q320 406 292 421T232 437Q174 437 174 391Q174 367 194 354T243 330T308 310T372 281T422 232T442 151Q442 111 425 81T379 30T313 -1T233 -12Z" />
<glyph unicode="t" glyph-name="t" horiz-adv-x="367" d="M249 -6Q200 -6 169 2T119 27T94 71T87 133V424H11V533H87V716H234V533H348V424H234V170Q234 129 246 115T297 101Q308 101 322 103T341 107V1Q337 0 327 -1T304 -4T277 -5T249 -6Z" />
<glyph unicode="u" glyph-name="u" horiz-adv-x="532" d="M175 -11Q117 -11 82 20T46 129V533H193V172Q193 142 204 127T242 111Q268 111 291 125T334 159V533H482V0H334V73Q324 59 309 44T273 17T228 -3T175 -11Z" />
<glyph unicode="v" glyph-name="v" horiz-adv-x="469" d="M0 533H149L208 295Q212 277 215 261T223 229T231 193T239 150H241Q245 173 248 192T256 227T264 260T272 294L332 533H469L314 -1H155L0 533Z" />
<glyph unicode="w" glyph-name="w" horiz-adv-x="667" d="M1 533H144L183 353Q187 334 190 318T196 284T202 247T210 199H212Q216 226 219 246T225 284T233 318T241 354L280 533H404L443 357Q448 338 451 321T458 285T465 245T473 198H475Q479 224 482 245T488
284T495 319T503 355L540 533H666L542 -1H409L335 326H333L259 -1H126L1 533Z" />
<glyph unicode="x" glyph-name="x" horiz-adv-x="469" d="M162 274L19 533H171L247 383L316 533H456L312 280L467 0H315L230 168L147 0H6L162 274Z" />
<glyph unicode="y" glyph-name="y" horiz-adv-x="481" d="M117 -202Q70 -202 40 -197T-8 -187L20 -71Q31 -73 51 -77T98 -81Q124 -81 137 -70T159 -32L168 -6L-1 533H153L206 326Q217 282 225 245T243 161H245Q254 208 263 246T284 329L337 533H479L294 -52Q282
-89 268 -117T232 -164T183 -192T117 -202Z" />
<glyph unicode="z" glyph-name="z" horiz-adv-x="451" d="M22 82L242 424H40V533H417V447L197 106H432V0H22V82Z" />
<glyph unicode="{" glyph-name="braceleft" horiz-adv-x="383" d="M252 -200Q183 -200 149 -162T114 -57V106Q114 141 109 162T93 196T64 212T20 216V324Q46 324 64 328T93 345T109 378T114 434V597Q114 663 148 701T257 740H368V633H331Q295 633 280 615T265
559V420Q265 383 260 358T245 316T220 288T185 271V269Q205 262 219 252T244 225T260 182T265 120V-23Q265 -59 280 -76T331 -94H368V-200H252V-200Z" />
<glyph unicode="|" glyph-name="bar" horiz-adv-x="346" d="M99 740H247V-200H99V740Z" />
<glyph unicode="}" glyph-name="braceright" horiz-adv-x="383" d="M14 -94H51Q87 -94 102 -77T118 -23V127Q118 164 123 188T138 228T164 253T198 269V271Q179 278 164 287T139 312T123 352T118 413V559Q118 596 103 614T51 633H14V740H134Q208 740 238 705T269
604V434Q269 400 273 379T289 345T318 329T363 324V216Q337 216 319 212T290 196T274 163T269 106V-64Q269 -130 238 -165T138 -200H14V-94Z" />
<glyph unicode="~" glyph-name="asciitilde" horiz-adv-x="481" d="M309 372Q285 372 267 381T234 400T206 419T179 428Q162 428 153 416T143 374H66Q66 458 94 495T172 533Q197 533 215 525T248 506T276 486T303 477Q320 477 329 489T338 531H415Q415 446 387
409T309 372Z" />
</font>
</defs>
</svg>
