<?xml version="1.0" standalone="no"?> <!DOCTYPE svg PUBLIC "-//W3C//DTD SVG 1.0//EN" "http://www.w3.org/TR/2001/REC-SVG-20010904/DTD/svg10.dtd" > <svg xmlns="http://www.w3.org/2000/svg" width="100%" height="100%">
<defs >
<font id="benscnr_" horiz-adv-x="394" ><font-face
    font-family="BentonSansCond-Regular"
    units-per-em="1000"
    panose-1="2 0 6 6 4 0 0 2 0 4"
    ascent="787"
    descent="-213"
    alphabetic="0" />
<missing-glyph horiz-adv-x="500" />
<glyph unicode=" " glyph-name="space" horiz-adv-x="199" />
<glyph unicode="!" glyph-name="exclam" horiz-adv-x="281" d="M92 740H190L170 203H112L92 740ZM93 100H189V0H93V100Z" />
<glyph unicode="&quot;" glyph-name="quotedbl" horiz-adv-x="367" d="M225 685V740H301V685L287 486H239L225 685ZM65 685V740H143V685L129 486H80L65 685Z" />
<glyph unicode="#" glyph-name="numbersign" horiz-adv-x="612" d="M131 214H33V280H143L175 460H70V526H187L225 740H299L261 526H403L441 740H515L477 526H578V460H465L433 280H541V214H421L384 0H309L347 214H206L168 0H93L131 214ZM359 279L391 461H249L217 279H359Z" />
<glyph unicode="$" glyph-name="dollar" horiz-adv-x="559" d="M245 0Q204 5 173 19T117 55T76 105T46 167L117 193Q140 141 171 109T248 69V352Q215 367 183 384T125 426T84 483T68 563Q68 636 115 685T245 742V819H309V741Q380 731 420 691T483 593L414 562Q394
608 369 634T306 669V411Q342 395 377 377T440 334T485 273T503 187Q503 107 452 57T309 -1V-93H245V0V0ZM248 672Q198 667 173 639T148 568Q148 519 176 490T248 438V672V672ZM306 67Q356 72 389 99T422 181Q422 209 413 230T388 269T351 300T306 325V67V67Z"
/>
<glyph unicode="%" glyph-name="percent" horiz-adv-x="835" d="M191 299Q121 299 83 356T45 526Q45 637 83 694T191 752Q261 752 298 695T335 526Q335 414 298 357T191 299ZM570 740H640L264 0H194L570 740ZM646 -10Q576 -10 538 47T500 217Q500 328 538 385T646
443Q715 443 752 386T789 217Q789 105 752 48T646 -10ZM191 362Q230 362 248 401T266 526Q266 611 247 650T191 689Q152 689 134 650T115 526Q115 440 134 401T191 362ZM646 52Q685 52 703 92T721 217Q721 301 702 340T646 379Q606 379 588 341T569 217Q569 131
588 92T646 52Z" />
<glyph unicode="&amp;" glyph-name="ampersand" horiz-adv-x="623" d="M248 -14Q138 -14 84 35T29 174Q29 215 41 248T73 309T121 360T178 404Q156 448 144 491T132 582Q132 619 142 650T172 705T221 741T289 754Q326 754 352 743T396 712T421 668T429 613Q429
575 417 544T383 486T333 436T273 392Q285 371 299 350T328 305Q354 269 379 235T430 171Q453 212 466 263T485 372H560Q552 302 533 238T483 123Q548 65 605 64V-10Q557 -8 517 9T435 61Q400 26 354 6T248 -14ZM245 448Q291 480 323 517T355 607Q355 640 341 663T289
686Q249 686 230 659T210 587Q210 552 219 519T245 448ZM251 54Q332 54 383 108Q354 140 326 178T266 261Q251 283 237 303T210 346Q166 313 139 272T111 180Q111 120 145 87T251 54Z" />
<glyph unicode="&apos;" glyph-name="quotesingle" horiz-adv-x="210" d="M65 685V740H143V685L129 486H80L65 685Z" />
<glyph unicode="(" glyph-name="parenleft" horiz-adv-x="349" d="M262 -205Q162 -107 106 11T49 274Q49 417 105 535T262 751L309 712Q231 624 183 513T135 274Q135 144 183 32T310 -166L262 -205V-205Z" />
<glyph unicode=")" glyph-name="parenright" horiz-adv-x="349" d="M39 -166Q118 -78 166 33T214 273Q214 402 166 514T39 712L86 751Q186 653 242 535T299 273Q299 130 243 12T86 -205L39 -166Z" />
<glyph unicode="*" glyph-name="asterisk" horiz-adv-x="463" d="M107 400L202 538L37 525V585L203 572L107 711L161 744L232 590L302 744L355 711L260 572L426 585V525L260 538L355 400L302 368L232 521L161 368L107 400Z" />
<glyph unicode="+" glyph-name="plus" horiz-adv-x="535" d="M232 295H49V364H232V577H303V364H486V295H303V83H232V295Z" />
<glyph unicode="," glyph-name="comma" horiz-adv-x="237" d="M108 0H71V104H164V10L119 -102H81L108 0Z" />
<glyph unicode="-" glyph-name="hyphen" horiz-adv-x="308" d="M52 347H257V279H52V347Z" />
<glyph unicode="." glyph-name="period" horiz-adv-x="237" d="M71 104H164V0H71V104Z" />
<glyph unicode="/" glyph-name="slash" horiz-adv-x="483" d="M383 740H466L100 0H17L383 740Z" />
<glyph unicode="0" glyph-name="zero" horiz-adv-x="563" d="M282 -14Q165 -14 105 84T44 370Q44 558 104 656T282 754Q399 754 459 656T519 370Q519 182 459 84T282 -14ZM282 59Q356 59 396 133T436 370Q436 533 395 606T282 680Q207 680 167 607T127 370Q127
207 168 133T282 59Z" />
<glyph unicode="1" glyph-name="one" horiz-adv-x="381" d="M46 73H165V653Q142 639 109 629T48 619V692Q85 694 116 705T168 740H246V73H352V0H46V73Z" />
<glyph unicode="2" glyph-name="two" horiz-adv-x="504" d="M37 16Q37 76 51 122T89 204T143 268T205 321T267 370T320 421T358 480T373 554Q373 614 344 647T259 680Q209 680 174 647T116 557L47 586Q79 664 132 709T264 754Q357 754 405 700T454 558Q454 497
430 452T370 370T292 301T213 236T153 163T128 73H455V0H37V16Z" />
<glyph unicode="3" glyph-name="three" horiz-adv-x="511" d="M245 -12Q199 -12 163 -1T98 32T50 83T15 150L85 179Q111 111 149 85T242 59Q309 59 346 98T384 201Q384 278 340 318T193 358H167V426H210Q295 426 331 462T367 565Q367 589 361 610T341 647T305
672T250 681Q202 681 167 658T105 597L46 637Q83 690 136 722T258 754Q308 754 343 740T402 700T437 642T448 572Q448 501 413 457T327 395Q388 375 426 330T465 201Q465 154 449 115T405 48T336 4T245 -12Z" />
<glyph unicode="4" glyph-name="four" horiz-adv-x="529" d="M324 173H25V237L311 740H404V247H508V173H404V0H324V173ZM325 247V627H324L111 247H325Z" />
<glyph unicode="5" glyph-name="five" horiz-adv-x="504" d="M248 -14Q166 -14 115 26T29 135L97 168Q123 117 158 87T246 57Q284 57 310 72T354 112T380 171T388 242Q388 329 353 374T259 419Q212 419 181 398T125 338L62 352L86 740H432L428 665H154L137 418Q159
450 193 469T277 488Q320 488 355 473T416 427T455 351T469 246Q469 186 454 138T410 56T340 4T248 -14Z" />
<glyph unicode="6" glyph-name="six" horiz-adv-x="526" d="M275 -14Q224 -14 182 8T109 76T61 192T44 357Q44 444 59 517T106 642T183 724T291 754Q326 754 352 746T400 724T436 693T463 659L400 617Q381 643 356 663T288 683Q247 683 217 661T166 599T135 504T124
383Q156 419 198 442T295 466Q346 466 383 449T445 400T480 327T492 233Q492 180 478 135T436 57T368 5T275 -14ZM279 56Q342 56 377 101T412 231Q412 267 405 296T383 348T344 382T283 394Q235 394 196 372T125 307Q133 179 173 118T279 56Z" />
<glyph unicode="7" glyph-name="seven" horiz-adv-x="470" d="M353 665H37V740H439V671L177 0H93L353 665Z" />
<glyph unicode="8" glyph-name="eight" horiz-adv-x="525" d="M263 -15Q206 -15 163 0T90 41T46 101T31 176Q31 215 43 246T78 302T130 347T196 387Q166 404 141 423T98 464T70 515T60 577Q60 612 73 644T111 701T175 740T263 755Q314 755 352 741T415 701T452
644T465 577Q465 544 456 518T428 471T385 431T330 396Q366 377 396 356T447 310T481 252T494 178Q494 138 479 103T434 42T362 0T263 -15ZM268 428Q325 459 355 491T385 573Q385 594 379 614T358 651T320 676T264 686Q232 686 209 677T171 652T149 616T141 575Q141
550 149 530T174 492T214 460T268 428ZM263 52Q331 52 371 87T411 183Q411 213 400 236T369 280T320 319T258 356Q224 337 197 318T152 279T123 235T113 182Q113 125 153 89T263 52Z" />
<glyph unicode="9" glyph-name="nine" horiz-adv-x="526" d="M237 -14Q201 -14 173 -5T123 18T85 50T57 86L119 128Q130 114 141 101T166 78T198 62T239 56Q280 56 310 78T361 140T391 235T401 357Q370 321 328 298T231 274Q180 274 143 291T82 340T46 413T34
507Q34 560 49 605T92 683T160 735T252 754Q303 754 345 732T418 664T465 548T482 383Q482 296 467 223T422 98T345 16T237 -14ZM245 346Q291 346 330 368T400 433Q392 561 353 622T248 683Q183 683 149 639T114 509Q114 473 121 444T143 392T184 358T245 346Z"
/>
<glyph unicode=":" glyph-name="colon" horiz-adv-x="240" d="M73 528H166V424H73V528ZM73 104H166V0H73V104Z" />
<glyph unicode=";" glyph-name="semicolon" horiz-adv-x="240" d="M73 528H166V424H73V528ZM109 0H73V104H166V11L120 -102H82L109 0Z" />
<glyph unicode="&lt;" glyph-name="less" horiz-adv-x="571" d="M58 294V354L508 577V502L141 324L508 146V71L58 294Z" />
<glyph unicode="=" glyph-name="equal" horiz-adv-x="535" d="M63 471H472V404H63V471ZM63 246H472V179H63V246Z" />
<glyph unicode="&gt;" glyph-name="greater" horiz-adv-x="571" d="M64 146L430 324L64 502V577L515 354V294L64 71V146Z" />
<glyph unicode="?" glyph-name="question" horiz-adv-x="466" d="M177 203Q176 217 176 232T176 263Q176 295 182 319T201 363T229 401T265 435Q284 451 299 466T324 497T339 533T345 576Q345 624 317 653T236 682Q189 682 156 653T100 578L33 609Q64 673 114
713T241 754Q286 754 320 741T378 705T414 650T426 582Q426 546 418 520T396 472T364 434T326 400Q301 378 286 360T261 320T249 271T246 203H177V203ZM163 101H260V0H163V101Z" />
<glyph unicode="@" glyph-name="at" horiz-adv-x="744" d="M371 -14Q296 -14 235 11T131 86T63 206T39 369Q39 458 64 529T133 651T238 727T373 754Q446 754 507 728T612 652T680 534T705 380Q705 270 664 213T554 156Q506 156 480 179T445 234Q418 202 385 181T309
159Q250 159 217 201T185 323Q185 382 197 431T233 515T288 570T359 590Q396 590 421 575T465 536L471 581H536L499 288Q488 202 561 202Q602 202 629 243T657 379Q657 456 636 517T578 621T488 687T373 710Q310 710 258 687T168 620T109 513T88 370Q88 288 109
225T167 118T257 52T372 29Q423 29 466 41T548 75L568 39Q528 14 477 0T371 -14ZM326 215Q355 215 380 229T432 273L458 480Q439 506 417 519T365 532Q340 532 320 517T285 476T262 412T253 330Q252 269 271 242T326 215Z" />
<glyph unicode="A" glyph-name="A" horiz-adv-x="564" d="M105 0H26L243 743H321L538 0H454L395 213H164L105 0ZM343 399Q324 465 310 519T281 627H279Q265 573 251 520T217 401L185 286H375L343 399Z" />
<glyph unicode="B" glyph-name="B" horiz-adv-x="580" d="M76 740H292Q398 740 456 695T514 554Q514 515 504 486T478 437T440 404T397 385V383Q425 377 450 364T493 330T523 277T534 201Q534 103 474 52T309 0H76V740ZM287 415Q358 415 396 444T434 540Q434 607
400 636T289 665H159V415H287ZM307 73Q384 73 418 107T453 209Q453 285 410 315T291 345H159V73H307Z" />
<glyph unicode="C" glyph-name="C" horiz-adv-x="586" d="M309 -13Q248 -13 200 11T117 84T65 205T46 372Q46 465 65 536T118 655T201 729T310 754Q362 754 400 737T466 688T511 614T539 520L461 506Q444 591 409 634T308 677Q222 677 176 597T130 373Q130 222
176 142T310 62Q376 62 413 105T470 242L547 229Q536 176 517 132T469 55T400 5T309 -13Z" />
<glyph unicode="D" glyph-name="D" horiz-adv-x="599" d="M76 740H239Q393 740 473 653T553 371Q553 274 533 204T472 88T374 22T239 0H76V740ZM250 75Q362 75 415 145T469 371Q469 524 416 593T249 663H160V75H250Z" />
<glyph unicode="E" glyph-name="E" horiz-adv-x="508" d="M76 740H454V663H160V429H375V353H160V76H471V0H76V740Z" />
<glyph unicode="F" glyph-name="F" horiz-adv-x="478" d="M76 740H449V663H160V424H371V348H160V0H76V740Z" />
<glyph unicode="G" glyph-name="G" horiz-adv-x="611" d="M303 -13Q179 -13 113 87T46 372Q46 462 64 533T116 653T199 728T310 754Q409 754 462 692T538 520L462 505Q443 593 408 635T308 677Q227 677 179 601T130 374Q130 216 177 139T312 62Q386 62 427 117T470
282H329V354H545V0H478V101H477Q468 80 453 60T416 23T366 -3T303 -13Z" />
<glyph unicode="H" glyph-name="H" horiz-adv-x="620" d="M76 740H160V429H460V740H544V0H460V352H160V0H76V740Z" />
<glyph unicode="I" glyph-name="I" horiz-adv-x="248" d="M82 740H166V0H82V740Z" />
<glyph unicode="J" glyph-name="J" horiz-adv-x="431" d="M188 -11Q143 -11 99 4T19 47L59 108Q86 87 119 75T182 62Q224 62 250 86T276 166V740H360V165Q360 77 313 33T188 -11Z" />
<glyph unicode="K" glyph-name="K" horiz-adv-x="568" d="M76 740H160V352Q165 360 173 373T191 401T214 433T237 466L429 740H518L313 453L551 0H462L261 382L160 244V0H76V740Z" />
<glyph unicode="L" glyph-name="L" horiz-adv-x="484" d="M76 740H160V76H453V0H76V740Z" />
<glyph unicode="M" glyph-name="M" horiz-adv-x="735" d="M76 740H181L368 117H370L553 740H658V0H577V606H575Q572 588 566 566T553 518T539 467T524 418L397 0H331L204 420Q197 442 190 467T176 516T163 564T153 607H151V0H76V740Z" />
<glyph unicode="N" glyph-name="N" horiz-adv-x="627" d="M76 740H174L406 287Q426 250 439 222T471 156H473V740H550V0H473L225 477Q215 497 207 513T190 545T174 578T155 617H153V0H76V740Z" />
<glyph unicode="O" glyph-name="O" horiz-adv-x="627" d="M314 -14Q256 -14 207 11T122 84T66 205T46 370Q46 463 66 535T122 655T207 729T314 754Q372 754 421 729T505 656T561 535T581 370Q581 277 561 205T506 85T421 11T314 -14ZM314 62Q399 62 447 142T496
370Q496 518 448 597T314 677Q228 677 179 598T130 370Q130 222 179 142T314 62Z" />
<glyph unicode="P" glyph-name="P" horiz-adv-x="553" d="M76 740H283Q334 740 376 728T448 691T494 625T511 529Q511 468 493 426T444 358T370 321T278 309H159V0H76V740ZM281 382Q355 382 392 415T430 526Q430 601 393 632T280 663H159V382H281Z" />
<glyph unicode="Q" glyph-name="Q" horiz-adv-x="627" d="M466 -188Q413 -188 376 -175T316 -138T281 -81T270 -7Q221 1 180 29T109 104T63 218T46 370Q46 463 66 535T122 655T207 729T315 754Q372 754 421 729T505 656T561 535T581 370Q581 283 564 216T517 101T444
26T351 -8Q353 -41 363 -62T390 -95T431 -111T485 -116H528V-188H466V-188ZM315 60Q399 60 447 141T496 370Q496 518 448 597T315 677Q229 677 180 598T130 370Q130 222 179 141T315 60Z" />
<glyph unicode="R" glyph-name="R" horiz-adv-x="570" d="M76 740H286Q394 740 452 689T511 530Q511 485 500 451T470 393T425 353T371 330L521 0H435L290 315H159V0H76V740ZM281 387Q355 387 392 418T430 529Q430 603 393 633T281 663H159V387H281Z" />
<glyph unicode="S" glyph-name="S" horiz-adv-x="547" d="M279 -12Q233 -12 195 0T127 35T74 90T33 163L105 196Q131 136 173 99T279 62Q345 62 381 94T418 181Q418 213 406 237T372 279T324 313T266 342Q231 359 195 377T131 422T84 483T66 570Q66 611 81 644T124
702T187 740T267 754Q311 754 346 742T408 708T455 659T488 598L416 563Q406 586 393 607T361 645T320 670T266 680Q213 680 181 651T149 573Q149 541 161 517T194 475T242 441T298 412Q334 395 370 377T435 332T482 270T500 183Q500 143 485 107T441 45T371 4T279
-12Z" />
<glyph unicode="T" glyph-name="T" horiz-adv-x="519" d="M217 663H26V740H492V663H301V0H217V663Z" />
<glyph unicode="U" glyph-name="U" horiz-adv-x="602" d="M301 -13Q240 -13 196 5T124 57T83 138T70 243V740H154V254Q154 162 187 112T302 61Q384 61 417 111T450 252V740H531V245Q531 188 518 141T477 60T406 6T301 -13Z" />
<glyph unicode="V" glyph-name="V" horiz-adv-x="559" d="M26 740H110L221 340Q239 277 253 223T281 115H283Q297 170 311 222T343 338L454 740H533L319 -3H240L26 740Z" />
<glyph unicode="W" glyph-name="W" horiz-adv-x="777" d="M30 740H110L190 360Q196 330 201 305T212 255T222 203T234 141H236Q242 175 247 202T257 255T267 305T278 360L353 740H429L507 350Q513 322 518 297T529 247T538 197T548 141H550Q560 197 569 245T591
350L672 740H747L582 -3H511L390 593H388L266 -3H195L30 740Z" />
<glyph unicode="X" glyph-name="X" horiz-adv-x="555" d="M233 400L51 740H141L282 470L420 740H501L321 402L536 0H448L274 333L100 0H18L233 400Z" />
<glyph unicode="Y" glyph-name="Y" horiz-adv-x="526" d="M221 305L16 740H102L264 382H266L428 740H509L305 307V0H221V305Z" />
<glyph unicode="Z" glyph-name="Z" horiz-adv-x="527" d="M33 63L387 663H57V740H485V677L133 76H485V0H33V63Z" />
<glyph unicode="[" glyph-name="bracketleft" horiz-adv-x="339" d="M71 740H303V677H153V-137H303V-200H71V740Z" />
<glyph unicode="\" glyph-name="backslash" horiz-adv-x="478" d="M14 740H98L463 0H380L14 740Z" />
<glyph unicode="]" glyph-name="bracketright" horiz-adv-x="339" d="M35 -137H185V677H35V740H267V-200H35V-137Z" />
<glyph unicode="^" glyph-name="asciicircum" horiz-adv-x="444" d="M194 740H250L360 581H311L221 669L133 581H84L194 740Z" />
<glyph unicode="_" glyph-name="underscore" horiz-adv-x="430" d="M-3 -65H433V-130H-3V-65Z" />
<glyph unicode="`" glyph-name="grave" horiz-adv-x="444" d="M105 740H200L280 584H225L105 740Z" />
<glyph unicode="a" glyph-name="a" horiz-adv-x="471" d="M162 -7Q102 -7 69 27T36 125Q36 204 106 260T331 348V380Q331 468 252 468Q204 468 165 447T96 397L51 446Q93 488 145 513T260 539Q338 539 374 498T410 380V130Q410 82 412 51T423 0H342Q337 16 334
30T331 68Q299 33 256 13T162 -7ZM189 59Q231 59 267 78T331 128V290Q270 277 229 260T162 224T126 182T115 136Q115 96 134 78T189 59Z" />
<glyph unicode="b" glyph-name="b" horiz-adv-x="508" d="M285 -8Q239 -8 206 11T145 63V0H64V739H145V460Q170 491 204 515T290 539Q329 539 362 523T419 474T456 388T470 265Q470 193 456 142T417 57T358 8T285 -8ZM270 59Q323 59 355 107T388 264Q388 370 355
419T269 469Q231 469 202 447T145 395V131Q174 96 204 78T270 59Z" />
<glyph unicode="c" glyph-name="c" horiz-adv-x="456" d="M240 -11Q198 -11 162 6T98 58T55 144T39 264Q39 335 55 387T100 473T166 523T245 539Q285 539 314 527T364 493T399 443T422 382L348 362Q334 412 311 440T243 469Q218 469 196 457T157 421T130 357T120
264Q120 167 152 112T243 57Q285 57 312 83T354 166L425 147Q403 72 358 31T240 -11Z" />
<glyph unicode="d" glyph-name="d" horiz-adv-x="508" d="M219 -8Q180 -8 148 7T91 56T54 140T40 264Q40 336 54 387T93 473T151 523T223 539Q269 539 304 519T365 465V740H445V130Q445 82 447 51T458 0H375Q370 13 368 34T365 69Q339 39 305 16T219 -8ZM241 59Q276
59 308 80T365 131V396Q336 430 306 449T240 469Q186 469 154 420T121 262Q121 156 154 108T241 59Z" />
<glyph unicode="e" glyph-name="e" horiz-adv-x="470" d="M242 -11Q199 -11 162 6T98 57T55 143T39 264Q39 335 56 387T101 473T166 523T243 539Q331 539 381 470T431 267V247H119Q121 153 155 105T246 57Q293 57 320 81T371 149L427 114Q399 57 352 23T242 -11ZM354
308Q350 380 323 425T242 470Q197 470 162 432T120 308H354Z" />
<glyph unicode="f" glyph-name="f" horiz-adv-x="297" d="M98 461H21V528H98V608Q98 674 133 707T242 741Q249 741 264 741T281 739V672Q280 672 276 672T267 672T257 673T251 673Q219 673 199 659T178 606V528H277V461H178V0H98V461Z" />
<glyph unicode="g" glyph-name="g" horiz-adv-x="493" d="M362 486Q383 504 412 517T468 535V459Q450 459 430 456T388 445Q399 425 405 401T412 348Q412 304 399 269T361 210T304 172T230 159Q190 159 158 171Q144 163 136 154T128 130Q128 115 139 107T189 94L271
84Q369 73 410 42T452 -51Q452 -86 435 -114T387 -161T314 -190T223 -200Q166 -200 127 -192T63 -167T27 -127T15 -73Q15 -33 38 -4T101 45Q80 56 69 72T57 111Q57 134 73 156T114 194Q81 220 63 259T44 348Q44 391 57 426T96 486T155 525T229 539Q312 539 362
486ZM230 219Q281 219 308 253T336 347Q336 407 309 441T229 475Q178 475 150 440T122 347Q122 288 150 254T230 219ZM157 29Q123 13 107 -11T90 -61Q90 -102 121 -122T232 -142Q296 -142 336 -121T377 -61Q377 -45 372 -33T353 -11T316 5T258 16L172 27Q168 28
165 28T157 29Z" />
<glyph unicode="h" glyph-name="h" horiz-adv-x="502" d="M64 740H145V455Q158 470 176 485T215 512T261 531T312 539Q376 539 409 502T442 392V0H362V375Q362 423 345 445T287 468Q268 468 249 462T211 444T176 420T145 392V0H64V740Z" />
<glyph unicode="i" glyph-name="i" horiz-adv-x="220" d="M69 720H151V633H69V720ZM69 528H150V0H69V528Z" />
<glyph unicode="j" glyph-name="j" horiz-adv-x="220" d="M69 720H151V633H69V720ZM40 -201Q32 -201 17 -200T-2 -197V-134Q3 -135 11 -135T26 -136Q69 -136 69 -79V528H150V-82Q150 -142 126 -171T40 -201Z" />
<glyph unicode="k" glyph-name="k" horiz-adv-x="459" d="M64 740H144V256Q148 264 156 275T174 301T195 330T217 360L338 528H421L278 335L439 0H356L228 269L144 158V0H64V740Z" />
<glyph unicode="l" glyph-name="l" horiz-adv-x="220" d="M69 740H150V0H69V740Z" />
<glyph unicode="m" glyph-name="m" horiz-adv-x="779" d="M64 528H145V455Q159 470 177 485T215 512T259 531T306 539Q360 539 388 518T426 455Q441 471 459 486T498 513T542 532T591 539Q655 539 687 502T719 392V0H639V375Q639 423 623 445T565 468Q528 468
495 447T432 397V0H351V375Q351 423 337 445T280 468Q246 468 212 447T145 393V0H64V528Z" />
<glyph unicode="n" glyph-name="n" horiz-adv-x="502" d="M64 528H145V455Q158 470 176 485T215 512T261 531T312 539Q376 539 409 502T442 392V0H362V375Q362 423 345 445T287 468Q268 468 249 462T211 444T176 420T145 392V0H64V528Z" />
<glyph unicode="o" glyph-name="o" horiz-adv-x="495" d="M248 -11Q204 -11 166 6T100 58T55 144T39 264Q39 332 55 383T99 469T165 521T248 539Q292 539 330 522T396 470T440 384T456 264Q456 196 440 145T396 59T330 7T248 -11ZM248 57Q311 57 343 113T375 264Q375
307 368 344T345 409T305 453T248 469Q216 469 192 455T152 413T128 348T120 264Q120 221 127 183T149 117T189 73T248 57Z" />
<glyph unicode="p" glyph-name="p" horiz-adv-x="508" d="M64 528H145V461Q169 490 204 514T290 539Q329 539 361 523T418 474T455 388T469 265Q469 193 455 142T416 57T358 8T285 -8Q239 -8 205 11T145 64V-200H64V528ZM270 59Q323 59 355 107T388 264Q388 370
355 419T269 469Q233 469 201 447T145 396V131Q174 96 204 78T270 59Z" />
<glyph unicode="q" glyph-name="q" horiz-adv-x="508" d="M363 69Q351 54 336 40T304 15T265 -2T219 -9Q180 -9 148 6T91 55T54 139T40 263Q40 335 53 387T91 472T148 522T220 539Q266 539 300 518T363 462V528H444V-200H363V69ZM241 58Q278 58 306 78T363 130V395Q334
429 305 449T240 469Q187 469 154 421T121 264Q121 157 154 108T241 58Z" />
<glyph unicode="r" glyph-name="r" horiz-adv-x="345" d="M64 528H145V437H147Q158 457 174 475T211 508T257 530T314 539H325L320 463Q316 464 312 464H301Q249 464 209 434T145 356V0H64V528Z" />
<glyph unicode="s" glyph-name="s" horiz-adv-x="435" d="M217 -11Q148 -11 100 18T20 97L75 137Q101 97 138 76T218 55Q269 55 296 75T323 133Q323 166 303 185T252 217T186 243T120 274T69 321T48 397Q48 429 60 455T95 499T147 528T215 539Q274 539 317 514T389
444L335 402Q315 433 285 452T214 472Q169 472 148 452T126 401Q126 368 146 349T196 317T262 292T328 262T379 214T399 137Q399 103 385 76T346 29T288 -1T217 -11Z" />
<glyph unicode="t" glyph-name="t" horiz-adv-x="325" d="M228 -6Q156 -6 126 22T96 119V461H18V528H96V716H176V528H292V461H176V137Q176 96 190 78T246 59Q258 59 270 61T291 66V1Q282 -2 264 -4T228 -6Z" />
<glyph unicode="u" glyph-name="u" horiz-adv-x="502" d="M190 -11Q126 -11 93 26T60 136V528H140V151Q140 104 157 82T218 59Q256 59 290 80T357 135V528H438V0H357V73Q327 40 285 15T190 -11Z" />
<glyph unicode="v" glyph-name="v" horiz-adv-x="441" d="M18 528H99L185 228Q194 194 202 163T223 86H225Q236 130 244 161T262 228L347 528H423L263 -2H178L18 528Z" />
<glyph unicode="w" glyph-name="w" horiz-adv-x="638" d="M19 528H97L162 263Q167 244 171 227T178 193T186 158T195 116H197Q201 139 205 157T212 193T220 228T229 266L287 528H358L417 268Q427 227 434 193T450 115H452Q460 159 468 193T486 268L548 528H619L485
-2H414L321 401H319L224 -2H154L19 528Z" />
<glyph unicode="x" glyph-name="x" horiz-adv-x="437" d="M177 276L34 528H118L225 337L326 528H404L261 278L420 0H336L216 218L96 0H18L177 276Z" />
<glyph unicode="y" glyph-name="y" horiz-adv-x="455" d="M88 -201Q62 -201 40 -197T6 -189L22 -125Q32 -127 49 -130T86 -133Q121 -133 137 -113T168 -51L183 -5L18 528H101L181 252Q194 208 203 172T224 93H226Q237 137 247 175T271 258L349 528H426L244 -58Q232
-94 219 -121T189 -166T147 -192T88 -201Z" />
<glyph unicode="z" glyph-name="z" horiz-adv-x="430" d="M32 52L289 461H54V528H385V475L128 66H396V0H32V52Z" />
<glyph unicode="{" glyph-name="braceleft" horiz-adv-x="335" d="M245 -200Q179 -200 151 -165T122 -63V122Q122 158 117 181T100 217T70 234T28 239V301Q53 301 70 306T99 323T116 359T122 418V603Q122 669 151 704T247 740H308V677H271Q236 677 220 659T204
603V414Q204 377 199 353T184 313T161 288T129 271V269Q147 262 160 253T184 228T199 188T204 126V-64Q204 -102 220 -119T271 -137H308V-200H245V-200Z" />
<glyph unicode="|" glyph-name="bar" horiz-adv-x="308" d="M114 740H194V-200H114V740Z" />
<glyph unicode="}" glyph-name="braceright" horiz-adv-x="335" d="M27 -137H64Q99 -137 115 -120T131 -64V129Q131 166 136 190T151 229T174 253T206 269V271Q188 278 175 287T151 311T136 350T131 411V603Q131 641 115 659T64 677H27V740H92Q158 740 185 706T213
606V418Q213 382 218 359T235 324T264 306T307 301V239Q283 239 265 235T236 217T219 181T213 122V-66Q213 -132 186 -166T93 -200H27V-137Z" />
<glyph unicode="~" glyph-name="asciitilde" horiz-adv-x="444" d="M288 406Q268 406 250 415T217 434T187 453T159 462Q141 462 133 450T124 408H74Q74 470 95 498T157 527Q177 527 195 519T229 500T259 480T287 471Q304 471 312 482T321 525H369Q369 463 348
435T288 406Z" />
</font>
</defs>
</svg>
